<svg viewBox="0 0 660 620" fill="none" xmlns="http://www.w3.org/2000/svg">
<path opacity="0.7" d="M89.6676 207.192C89.6676 207.192 52.866 296.472 104.584 386.372C156.301 476.272 262.825 523.764 348.084 564.374C433.343 604.984 521.875 585.206 563.944 518.692C606.012 452.178 548.315 404.699 548.236 309.851C548.156 215.004 563.35 189.894 508.636 109.765C453.922 29.636 319.796 11.8916 218.368 71.3248C116.939 130.758 89.6676 207.192 89.6676 207.192Z" fill="white"/>
<path d="M84.0708 172.558C119.328 108.277 184.8 59.644 266.31 52.7992C322.371 48.2074 378.243 63.3921 423.034 95.3932C445.289 111.513 465.062 132.035 478.197 155.459C493.271 182.367 497.667 213.392 513.177 240.176C532.462 273.47 568.683 287.209 593.01 315.977C613.035 339.673 619.912 371.43 617.615 401.611C613.417 456.705 579.058 509.008 528.515 537.243C485.787 561.113 434.28 567.697 384.635 565.527C308.075 562.191 231.858 538.47 171.56 494.041C111.263 449.612 67.9272 383.929 57.6576 312.592C50.6748 264.12 60.8256 214.929 84.0708 172.558Z" fill="white"/>
<path opacity="0.7" d="M84.0708 172.558C119.328 108.277 184.8 59.644 266.31 52.7992C322.371 48.2074 378.243 63.3921 423.034 95.3932C445.289 111.513 465.062 132.035 478.197 155.459C493.271 182.367 497.667 213.392 513.177 240.176C532.462 273.47 568.683 287.209 593.01 315.977C613.035 339.673 619.912 371.43 617.615 401.611C613.417 456.705 579.058 509.008 528.515 537.243C485.787 561.113 434.28 567.697 384.635 565.527C308.075 562.191 231.858 538.47 171.56 494.041C111.263 449.612 67.9272 383.929 57.6576 312.592C50.6748 264.12 60.8256 214.929 84.0708 172.558Z" fill="white"/>
<path d="M60.8124 196.056C62.37 201.86 61.6044 191.183 64.6536 178.138C67.7028 165.094 72.9432 170.376 72.9432 170.376" stroke="#263238" stroke-linecap="round" stroke-linejoin="round"/>
<path d="M59.862 182.726L69.432 179.044" stroke="#263238" stroke-linecap="round" stroke-linejoin="round"/>
<path d="M77.3388 174.617C77.3388 174.617 71.6232 185.777 80.2428 190.464" stroke="#263238" stroke-linecap="round" stroke-linejoin="round"/>
<path d="M85.4568 171.492C85.4568 171.492 94.908 176.452 88.9944 187.091" stroke="#263238" stroke-linecap="round" stroke-linejoin="round"/>
<path d="M78.9888 178.386L85.7604 183.024" stroke="#263238" stroke-linecap="round" stroke-linejoin="round"/>
<path d="M84.2952 176.34L79.002 184.264" stroke="#263238" stroke-linecap="round" stroke-linejoin="round"/>
<path d="M114.704 295.1C115.992 287.727 110.674 280.769 102.825 279.559C94.9768 278.349 87.57 283.345 86.282 290.718C84.9939 298.091 90.3123 305.049 98.1608 306.259C106.009 307.469 113.416 302.473 114.704 295.1Z" stroke="#263238" stroke-linecap="round" stroke-linejoin="round"/>
<path d="M123.247 312.899C131.888 311.234 137.456 303.304 135.684 295.186C133.912 287.069 125.47 281.838 116.829 283.503C108.188 285.167 102.619 293.098 104.391 301.215C106.164 309.333 114.605 314.564 123.247 312.899Z" stroke="#263238" stroke-linecap="round" stroke-linejoin="round"/>
<path d="M113.612 287.32L106.986 289.54" stroke="#263238" stroke-linecap="round" stroke-linejoin="round"/>
<path d="M114.536 289.887L105.006 293.124" stroke="#263238" stroke-linecap="round" stroke-linejoin="round"/>
<path d="M114.893 292.987L104.254 296.831" stroke="#263238" stroke-linecap="round" stroke-linejoin="round"/>
<path d="M114.14 297.216L104.438 301.382" stroke="#263238" stroke-linecap="round" stroke-linejoin="round"/>
<path d="M112.424 300.464L105.059 303.341" stroke="#263238" stroke-linecap="round" stroke-linejoin="round"/>
<path d="M107.448 272.292C107.039 271.052 102.366 270.283 102.168 273.532C101.97 276.78 107.092 274.077 108.544 272.292C108.544 272.292 105.904 275.627 107.012 276.284" stroke="#263238" stroke-linecap="round" stroke-linejoin="round"/>
<path d="M133.32 276.334L129.175 284.431C129.175 284.431 131.248 280.376 133.465 280.711C136.198 281.17 134.376 285.374 131.076 283.824" stroke="#263238" stroke-linecap="round" stroke-linejoin="round"/>
<path d="M584.377 408.543L590.885 414.321" stroke="#263238" stroke-linecap="round" stroke-linejoin="round"/>
<path d="M590.885 407.03L585.433 414.681" stroke="#263238" stroke-linecap="round" stroke-linejoin="round"/>
<path d="M597.287 409.225L603.808 406.943" stroke="#263238" stroke-linecap="round" stroke-linejoin="round"/>
<path d="M606.936 400.57L610.896 403.856" stroke="#263238" stroke-linecap="round" stroke-linejoin="round"/>
<path d="M613.932 396.614L608.916 412.784" stroke="#263238" stroke-linecap="round" stroke-linejoin="round"/>
<path d="M310.16 317.713L327.677 306.392L350.869 307.917L352.321 335.544L335.293 346.977L314.279 345.538L310.16 317.713Z" stroke="#263238" stroke-linecap="round" stroke-linejoin="round"/>
<path d="M314.279 345.538L331.241 334.068L352.321 335.544" stroke="#263238" stroke-linecap="round" stroke-linejoin="round"/>
<path d="M331.241 334.068L327.677 306.392" stroke="#263238" stroke-linecap="round" stroke-linejoin="round"/>
<path d="M310.16 317.713L333.3 320.23L350.869 307.917" stroke="#263238" stroke-linecap="round" stroke-linejoin="round"/>
<path d="M333.3 320.23L335.293 346.977" stroke="#263238" stroke-linecap="round" stroke-linejoin="round"/>
<path d="M514.602 224.899L506.84 247.554L530.996 244.491L514.602 224.899Z" stroke="#263238" stroke-linecap="round" stroke-linejoin="round"/>
<path d="M514.602 224.899L518.918 245.892" stroke="#263238" stroke-linecap="round" stroke-linejoin="round"/>
<path d="M518.232 242.532L521.057 242.11L521.717 245.669" stroke="#263238" stroke-linecap="round" stroke-linejoin="round"/>
<path d="M210.395 432.214L222.46 437.782" stroke="#263238" stroke-linecap="round" stroke-linejoin="round"/>
<path d="M218.566 427.961L215.107 439.803" stroke="#263238" stroke-linecap="round" stroke-linejoin="round"/>
<path d="M220.242 422.183C220.44 421.99 220.683 421.844 220.952 421.756C221.221 421.668 221.508 421.64 221.79 421.675C222.073 421.71 222.343 421.807 222.578 421.957C222.813 422.108 223.008 422.308 223.146 422.543C224.36 424.328 221.984 428.073 221.984 428.073L226.829 426.337" stroke="#263238" stroke-linecap="round" stroke-linejoin="round"/>
<path d="M305.118 42.16C316.642 48.2484 303.442 63.1284 303.442 71.8084C303.442 80.4884 316.642 79.2484 323.242 81.7284C325.882 81.7284 331.162 81.7284 331.016 88.0276" stroke="#263238" stroke-linecap="round" stroke-linejoin="round"/>
<path d="M292.274 50.0588C294.281 60.3136 306.794 56.6804 314.477 59.024C327.677 63.054 320.351 75.8508 316.417 83.5884C314.054 88.2012 311.705 94.674 315.929 99.0512" stroke="#263238" stroke-linecap="round" stroke-linejoin="round"/>
<path d="M293.964 54.0392L307.705 43.3132" stroke="#263238" stroke-linecap="round" stroke-linejoin="round"/>
<path d="M299.35 57.2384L309.698 49.1784" stroke="#263238" stroke-linecap="round" stroke-linejoin="round"/>
<path d="M305.435 65.3976L314.173 58.9496" stroke="#263238" stroke-linecap="round" stroke-linejoin="round"/>
<path d="M303.626 75.0448L320.707 63.5128" stroke="#263238" stroke-linecap="round" stroke-linejoin="round"/>
<path d="M310.174 79.546L322.08 71.3372" stroke="#263238" stroke-linecap="round" stroke-linejoin="round"/>
<path d="M315.242 96.9928L330.119 85.6096" stroke="#263238" stroke-linecap="round" stroke-linejoin="round"/>
<path d="M315.612 88.04L325.314 81.6292" stroke="#263238" stroke-linecap="round" stroke-linejoin="round"/>
<path d="M121.375 438.392C135.549 433.066 142.444 417.955 136.775 404.64C131.105 391.325 115.02 384.849 100.846 390.174C86.6718 395.5 79.7773 410.611 85.4465 423.926C91.1156 437.24 107.202 443.717 121.375 438.392Z" stroke="#263238" stroke-linecap="round" stroke-linejoin="round"/>
<path d="M118.061 389.162C127.697 378.535 135.894 372.521 139.049 374.48C143.854 377.444 135.234 397.68 119.803 419.666C104.372 441.651 87.9648 457.076 83.16 454.1C79.992 452.154 82.6584 442.705 89.2584 430.193" stroke="#263238" stroke-linecap="round" stroke-linejoin="round"/>
<path d="M84.0576 419.616C70.62 415.983 62.04 411.742 62.5812 408.357C63.36 403 86.5788 401.76 114.312 405.666C142.045 409.572 163.852 416.975 163.02 422.307C162.426 426.027 151.14 427.726 135.102 427.155" stroke="#263238" stroke-linecap="round" stroke-linejoin="round"/>
<path d="M87.582 400.805C77.4444 383.619 72.3756 370.215 75.8076 368.119C80.322 365.379 97.7724 383.16 114.787 407.799C131.802 432.438 141.926 454.708 137.425 457.461C134.442 459.271 125.796 452.104 115.355 439.902" stroke="#263238" stroke-linecap="round" stroke-linejoin="round"/>
<path d="M142.943 385.715C142.451 386.419 141.747 386.971 140.921 387.301C140.095 387.631 139.184 387.723 138.302 387.566C137.42 387.409 136.608 387.011 135.967 386.421C135.326 385.831 134.886 385.075 134.702 384.25C134.518 383.425 134.598 382.567 134.932 381.785C135.267 381.003 135.841 380.331 136.581 379.855C137.322 379.379 138.196 379.119 139.093 379.11C139.99 379.1 140.871 379.34 141.623 379.8C142.124 380.106 142.555 380.502 142.893 380.965C143.231 381.429 143.468 381.95 143.59 382.5C143.713 383.049 143.719 383.616 143.608 384.168C143.497 384.719 143.271 385.245 142.943 385.715Z" fill="#263238"/>
<path d="M127.908 451.05C127.416 451.755 126.712 452.307 125.886 452.637C125.06 452.966 124.149 453.058 123.267 452.902C122.385 452.745 121.573 452.346 120.932 451.756C120.291 451.166 119.851 450.411 119.667 449.586C119.483 448.761 119.563 447.903 119.898 447.121C120.232 446.338 120.806 445.667 121.546 445.19C122.287 444.714 123.161 444.455 124.058 444.445C124.956 444.435 125.836 444.675 126.588 445.135C127.089 445.442 127.521 445.838 127.858 446.301C128.196 446.764 128.433 447.286 128.555 447.835C128.678 448.385 128.684 448.952 128.573 449.503C128.462 450.055 128.236 450.581 127.908 451.05Z" fill="#263238"/>
<path d="M103.646 406.72C103.154 407.425 102.451 407.977 101.625 408.307C100.799 408.636 99.8874 408.728 99.0056 408.572C98.1239 408.415 97.3113 408.016 96.6705 407.426C96.0298 406.836 95.5895 406.081 95.4054 405.256C95.2213 404.431 95.3015 403.573 95.636 402.791C95.9705 402.008 96.5442 401.337 97.2847 400.86C98.0252 400.384 98.8993 400.125 99.7966 400.115C100.694 400.105 101.574 400.345 102.326 400.805C103.335 401.426 104.041 402.397 104.288 403.506C104.536 404.615 104.305 405.771 103.646 406.72Z" fill="#263238"/>
<path d="M393.136 221.117H408.685L416.46 208.469L408.685 195.821H393.136L385.361 208.469L393.136 221.117Z" stroke="#263238" stroke-linecap="round" stroke-linejoin="round"/>
<path d="M390.878 248.88L383.104 236.232H367.554" stroke="#263238" stroke-linecap="round" stroke-linejoin="round"/>
<path d="M369.64 208.469H385.189L392.964 195.821L385.189 183.16H369.64L361.865 195.821L369.64 208.469Z" stroke="#263238" stroke-linecap="round" stroke-linejoin="round"/>
<path d="M393.136 195.821H408.685L416.46 183.16L408.685 170.512H393.136L385.361 183.16L393.136 195.821Z" stroke="#263238" stroke-linecap="round" stroke-linejoin="round"/>
<path d="M392.964 197.78C394.116 197.78 395.049 196.903 395.049 195.821C395.049 194.739 394.116 193.862 392.964 193.862C391.812 193.862 390.878 194.739 390.878 195.821C390.878 196.903 391.812 197.78 392.964 197.78Z" fill="#263238"/>
<path d="M360.492 171.219C361.644 171.219 362.578 170.342 362.578 169.26C362.578 168.178 361.644 167.301 360.492 167.301C359.34 167.301 358.406 168.178 358.406 169.26C358.406 170.342 359.34 171.219 360.492 171.219Z" fill="#263238"/>
<path d="M388.793 248.88C388.793 248.493 388.915 248.114 389.144 247.792C389.373 247.47 389.699 247.219 390.08 247.07C390.461 246.922 390.881 246.883 391.285 246.959C391.69 247.034 392.061 247.221 392.353 247.495C392.645 247.769 392.843 248.118 392.924 248.498C393.004 248.878 392.963 249.272 392.805 249.63C392.647 249.988 392.38 250.294 392.037 250.509C391.694 250.725 391.291 250.84 390.878 250.84C390.605 250.84 390.333 250.789 390.08 250.69C389.827 250.592 389.597 250.448 389.404 250.266C389.21 250.084 389.056 249.868 388.952 249.63C388.847 249.392 388.793 249.138 388.793 248.88Z" fill="#263238"/>
<path d="M367.554 238.192C368.706 238.192 369.64 237.314 369.64 236.232C369.64 235.15 368.706 234.273 367.554 234.273C366.402 234.273 365.468 235.15 365.468 236.232C365.468 237.314 366.402 238.192 367.554 238.192Z" fill="#263238"/>
<path d="M431.508 183.52C431.508 183.129 431.631 182.748 431.863 182.423C432.094 182.099 432.422 181.846 432.807 181.697C433.191 181.548 433.614 181.51 434.021 181.587C434.429 181.664 434.803 181.853 435.095 182.13C435.388 182.407 435.587 182.76 435.667 183.143C435.746 183.526 435.703 183.923 435.542 184.283C435.381 184.643 435.11 184.95 434.763 185.165C434.416 185.38 434.009 185.494 433.594 185.492C433.319 185.492 433.046 185.44 432.792 185.341C432.538 185.242 432.308 185.097 432.114 184.913C431.92 184.73 431.767 184.513 431.663 184.274C431.559 184.034 431.506 183.778 431.508 183.52Z" fill="#263238"/>
<path d="M382.945 238.192C384.097 238.192 385.031 237.314 385.031 236.232C385.031 235.15 384.097 234.273 382.945 234.273C381.793 234.273 380.86 235.15 380.86 236.232C380.86 237.314 381.793 238.192 382.945 238.192Z" fill="#263238"/>
<path d="M414.374 183.52C414.374 183.13 414.497 182.749 414.728 182.425C414.959 182.1 415.286 181.848 415.67 181.698C416.053 181.549 416.476 181.51 416.883 181.586C417.29 181.662 417.664 181.85 417.957 182.126C418.251 182.402 418.451 182.753 418.532 183.135C418.613 183.518 418.571 183.914 418.412 184.274C418.253 184.635 417.984 184.943 417.639 185.159C417.294 185.376 416.888 185.492 416.473 185.492C415.917 185.492 415.383 185.284 414.989 184.914C414.596 184.544 414.374 184.043 414.374 183.52Z" fill="#263238"/>
<path d="M390.878 221.129C390.876 220.738 390.997 220.355 391.227 220.029C391.456 219.703 391.784 219.448 392.168 219.298C392.552 219.147 392.975 219.107 393.383 219.182C393.792 219.258 394.167 219.446 394.461 219.723C394.756 219.999 394.956 220.352 395.036 220.735C395.117 221.119 395.074 221.516 394.914 221.877C394.753 222.238 394.482 222.546 394.135 222.761C393.788 222.977 393.38 223.091 392.964 223.088C392.412 223.085 391.883 222.878 391.493 222.511C391.103 222.144 390.882 221.648 390.878 221.129Z" fill="#263238"/>
<path d="M416.473 183.495H433.594" stroke="#263238" stroke-linecap="round" stroke-linejoin="round"/>
<path d="M392.964 221.129L382.945 236.232" stroke="#263238" stroke-linecap="round" stroke-linejoin="round"/>
<path d="M369.64 183.16L360.492 169.26" stroke="#263238" stroke-linecap="round" stroke-linejoin="round"/>
<path d="M479.926 133.3C481.719 127.605 485.457 122.623 490.564 119.122C495.67 115.62 501.86 113.794 508.181 113.926C514.501 114.057 520.6 116.138 525.537 119.847C530.473 123.557 533.974 128.69 535.498 134.453" stroke="#263238" stroke-linecap="round" stroke-linejoin="round"/>
<path d="M504.24 167.822C497.217 167.067 490.735 163.911 486.03 158.955C481.324 154 478.724 147.591 478.724 140.951" stroke="#263238" stroke-linecap="round" stroke-linejoin="round"/>
<path d="M536.329 140.951C536.329 148.121 533.298 154.998 527.902 160.07C522.506 165.141 515.186 167.992 507.553 167.995" stroke="#263238" stroke-linecap="round" stroke-linejoin="round"/>
<path d="M537.966 123.802C546.968 122.723 553.001 123.306 553.938 125.835C555.799 130.87 536.54 141.72 510.919 150.077C485.298 158.435 463.03 161.113 461.155 156.066C460.165 153.376 465.208 149.023 474.025 144.274" stroke="#263238" stroke-linecap="round" stroke-linejoin="round"/>
<path d="M382.945 105.276L385.704 110.521L391.868 111.364L387.407 115.456L388.463 121.222L382.945 118.494L377.428 121.222L378.484 115.456L374.022 111.364L380.186 110.521L382.945 105.276Z" stroke="#263238" stroke-linecap="round" stroke-linejoin="round"/>
<path d="M188.06 91.3012C188.057 95.9647 186.084 100.436 182.575 103.735C179.066 107.034 174.307 108.89 169.343 108.897C168.736 108.897 168.142 108.872 167.561 108.822C163.948 108.5 160.513 107.2 157.672 105.078C154.832 102.956 152.708 100.105 151.56 96.871C150.413 93.6369 150.29 90.1593 151.206 86.8607C152.123 83.5622 154.04 80.5849 156.724 78.2907C159.408 75.9964 162.744 74.4841 166.326 73.9375C169.908 73.3909 173.582 73.8335 176.902 75.2117C180.221 76.5898 183.043 78.844 185.024 81.7004C187.005 84.5567 188.06 87.8921 188.06 91.3012V91.3012Z" stroke="#263238" stroke-linecap="round" stroke-linejoin="round"/>
<path d="M185.064 94.4756C185.067 95.0157 184.899 95.5443 184.581 95.9946C184.264 96.4448 183.811 96.7964 183.281 97.0048C182.75 97.2132 182.166 97.269 181.602 97.1651C181.037 97.0612 180.519 96.8024 180.111 96.4214C179.704 96.0404 179.426 95.5543 179.313 95.0248C179.2 94.4953 179.256 93.9461 179.476 93.4469C179.695 92.9477 180.067 92.5209 180.545 92.2206C181.023 91.9203 181.585 91.76 182.16 91.76C182.928 91.76 183.665 92.0457 184.209 92.5546C184.753 93.0636 185.061 93.7543 185.064 94.4756V94.4756Z" stroke="#263238" stroke-linecap="round" stroke-linejoin="round"/>
<path d="M158.994 101.395C158.995 102.041 158.844 102.68 158.552 103.265C158.26 103.85 157.834 104.367 157.304 104.78C154.843 102.871 152.947 100.398 151.8 97.6004C152.526 97.1814 153.363 96.9623 154.216 96.968C154.84 96.9598 155.46 97.0682 156.039 97.287C156.619 97.5058 157.146 97.8305 157.591 98.2424C158.035 98.6543 158.388 99.1451 158.629 99.6863C158.87 100.227 158.994 100.808 158.994 101.395Z" stroke="#263238" stroke-linecap="round" stroke-linejoin="round"/>
<path d="M182.16 104.16C178.699 107.24 174.11 108.953 169.343 108.946C168.736 108.946 168.142 108.922 167.561 108.872C167.454 108.395 167.401 107.909 167.402 107.421C167.403 105.773 167.997 104.173 169.087 102.881C170.176 101.589 171.699 100.681 173.407 100.303C175.115 99.9256 176.909 100.101 178.498 100.801C180.086 101.501 181.377 102.685 182.16 104.16V104.16Z" stroke="#263238" stroke-linecap="round" stroke-linejoin="round"/>
<path d="M164.802 84.32C167.179 84.32 169.105 82.5102 169.105 80.2776C169.105 78.045 167.179 76.2352 164.802 76.2352C162.425 76.2352 160.499 78.045 160.499 80.2776C160.499 82.5102 162.425 84.32 164.802 84.32Z" stroke="#263238" stroke-linecap="round" stroke-linejoin="round"/>
<path d="M168.788 91.76C168.788 92.1303 168.672 92.4923 168.452 92.8003C168.233 93.1082 167.922 93.3482 167.558 93.4899C167.194 93.6316 166.793 93.6687 166.406 93.5964C166.02 93.5242 165.665 93.3459 165.386 93.084C165.107 92.8221 164.917 92.4885 164.84 92.1253C164.763 91.7621 164.803 91.3856 164.954 91.0435C165.105 90.7013 165.36 90.4089 165.688 90.2032C166.016 89.9974 166.401 89.8876 166.795 89.8876C167.057 89.8876 167.316 89.936 167.558 90.0301C167.8 90.1242 168.02 90.2621 168.205 90.436C168.39 90.6099 168.537 90.8163 168.637 91.0435C168.737 91.2706 168.788 91.5141 168.788 91.76Z" stroke="#263238" stroke-linecap="round" stroke-linejoin="round"/>
<path d="M184.536 81.034C184.012 81.1954 183.464 81.275 182.912 81.2696C182.192 81.2696 181.478 81.1361 180.813 80.8767C180.148 80.6173 179.543 80.2371 179.034 79.758C178.525 79.2788 178.122 78.7101 177.848 78.0843C177.573 77.4585 177.433 76.788 177.434 76.1112C177.421 75.8964 177.421 75.6811 177.434 75.4664C180.262 76.7327 182.704 78.6474 184.536 81.034V81.034Z" stroke="#263238" stroke-linecap="round" stroke-linejoin="round"/>
<path d="M614.922 295.48L616.941 291.214L613.668 289.528C613.788 288.777 613.811 288.014 613.734 287.258L617.087 285.721L615.305 281.368L611.714 282.336C611.233 281.728 610.675 281.179 610.051 280.699L611.279 277.376L606.738 275.478L604.93 278.554C604.127 278.461 603.316 278.461 602.514 278.554L600.89 275.404L596.244 277.078L597.287 280.438C596.639 280.898 596.05 281.427 595.531 282.013L592.007 280.86L590.04 285.064L593.314 286.762C593.193 287.513 593.171 288.276 593.248 289.032L589.882 290.557L591.664 294.922L595.254 293.942C595.739 294.55 596.297 295.104 596.917 295.591L595.703 298.902L600.244 300.799L602.039 297.724C602.838 297.837 603.649 297.858 604.454 297.786L606.091 300.948L610.724 299.274L609.695 295.901C610.338 295.446 610.923 294.921 611.437 294.339L614.922 295.48ZM601.115 293.099C600.072 292.663 599.191 291.947 598.582 291.041C597.973 290.135 597.663 289.08 597.692 288.009C597.722 286.938 598.088 285.899 598.746 285.023C599.404 284.148 600.323 283.475 601.387 283.09C602.452 282.705 603.614 282.626 604.727 282.861C605.84 283.097 606.853 283.637 607.639 284.414C608.425 285.19 608.948 286.168 609.143 287.224C609.337 288.28 609.194 289.367 608.731 290.346C608.107 291.658 606.956 292.684 605.528 293.2C604.101 293.716 602.514 293.68 601.115 293.099V293.099Z" stroke="#263238" stroke-linecap="round" stroke-linejoin="round"/>
<path d="M590.792 317.366L593.538 311.575L589.103 309.268C589.261 308.25 589.288 307.217 589.182 306.193L593.749 304.11L591.36 298.195L586.489 299.522C585.838 298.693 585.08 297.943 584.232 297.29L585.895 292.776L579.678 290.16L577.236 294.326C576.152 294.18 575.054 294.151 573.962 294.24L571.745 289.962L565.435 292.243L566.848 296.806C565.971 297.429 565.174 298.145 564.472 298.939L559.68 297.426L556.934 303.217L561.37 305.524C561.212 306.542 561.185 307.574 561.29 308.599L556.723 310.682L559.152 316.597L564.023 315.282C564.678 316.109 565.435 316.858 566.28 317.514L564.617 322.016L570.794 324.595L573.236 320.416C574.32 320.568 575.419 320.597 576.51 320.503L578.728 324.781L585.037 322.512L583.625 317.936C584.501 317.318 585.299 316.606 586.001 315.816L590.792 317.366ZM572.048 314.129C570.632 313.536 569.434 312.561 568.607 311.329C567.78 310.096 567.36 308.66 567.402 307.203C567.444 305.747 567.944 304.334 568.841 303.145C569.737 301.956 570.989 301.043 572.438 300.522C573.887 300.001 575.467 299.896 576.98 300.219C578.492 300.543 579.869 301.28 580.935 302.339C582.001 303.397 582.709 304.729 582.97 306.166C583.23 307.602 583.031 309.079 582.397 310.409C581.979 311.292 581.379 312.089 580.632 312.754C579.885 313.42 579.005 313.94 578.044 314.285C577.083 314.631 576.059 314.795 575.03 314.768C574.001 314.741 572.988 314.524 572.048 314.129Z" stroke="#263238" stroke-linecap="round" stroke-linejoin="round"/>
<path d="M317.157 262.396C315.348 265.616 313.306 268.715 311.045 271.672C299.317 286.989 282.084 297.802 262.53 302.112C242.976 306.422 222.422 303.938 204.666 295.12C202.831 294.215 201.036 293.248 199.32 292.231C197.604 291.214 195.928 290.172 194.317 289.056C192.364 287.73 190.489 286.316 188.694 284.84C188.579 284.759 188.473 284.668 188.377 284.568C176.68 274.843 168.13 262.224 163.705 248.151C159.28 234.079 159.158 219.121 163.352 204.986C167.547 190.852 175.89 178.111 187.427 168.219C198.965 158.327 213.231 151.683 228.597 149.046C243.963 146.409 259.809 147.886 274.324 153.308C288.839 158.729 301.438 167.877 310.681 179.705C319.925 191.534 325.44 205.567 326.596 220.2C327.753 234.833 324.505 249.477 317.223 262.458L317.157 262.396Z" fill="white"/>
<g opacity="0.6">
<path opacity="0.6" d="M317.156 262.396C315.348 265.616 313.306 268.715 311.045 271.672L309.434 270.432L306.662 269.055L303.745 267.617L304.234 264.306L304.075 261.318C303.904 258.329 306.2 260.772 308.035 259.867C309.466 258.906 310.623 257.628 311.401 256.147C311.401 256.147 312.721 252.166 312.286 250.567C311.575 248.724 310.737 246.926 309.778 245.185L305.052 251.385L301.092 251.1L297.343 249.24L296.855 244.342L294.928 243.4L294.122 240.585L283.708 237.844L282.52 235.885C281.332 233.926 276.54 232.922 276.54 232.922L277.715 230.367L279.563 227.515C281.424 224.663 283.351 229.4 283.351 229.4L285.556 230.479L289.648 227.255L290.73 222.63L297.396 222.989C297.266 222.363 297.367 221.714 297.684 221.15C298.001 220.586 298.515 220.141 299.138 219.889C301.356 219.071 300.379 214.545 299.534 212.871C298.69 211.197 295.574 212.548 295.574 212.548C295.574 212.548 292.182 207.7 291.72 205.766C291.258 203.831 298.188 204.526 301.158 202.579C304.128 200.632 303.112 196.763 301.66 196.676C300.208 196.59 304.498 187.872 312.748 190.266C315.044 190.935 316.496 190.7 317.394 189.956C323.584 201.151 326.795 213.588 326.754 226.203C326.713 238.819 323.42 251.237 317.156 262.396Z" fill="white"/>
<path opacity="0.6" d="M259.433 228.854L256.608 232.19C256.608 232.19 255.407 229.499 253.691 230.95L251.051 233.157L249.137 238.192L245.705 240.275L243.606 239.246L241.626 238.254L239.474 237.187L237.415 240.907L235.739 243.883C236.556 245.344 237.572 246.699 238.762 247.913L242.405 253.952L246.84 256.06C248.69 256.124 250.531 256.332 252.344 256.68L255.394 258.18L254.311 264.38C254.311 264.38 252.014 267.89 250.483 266.922L248.939 265.968L246.431 274.127L246.325 278.616C246.325 278.616 244.834 279.198 243.329 279.67C241.824 280.141 242.774 279.893 239.62 280.81C236.465 281.728 236.716 281.691 234.155 282.373C231.972 283.091 229.871 284.013 227.885 285.126L228.109 289.441L222.077 290.272L218.698 288.585L219.529 285.857L219.925 281.592L219.463 278.405L218.011 275.59L222.077 272.13L221.179 269.96L218.869 265.645L213.985 268.125L211.477 269.365L205.801 266.972L205.181 263.736L203.28 257.92L201.511 254.299L198.37 250.306L197.578 246.872L199.346 243.722L200.284 242.06L197.393 238.402L196.601 235.798L191.73 231.644C191.73 231.644 193.142 231.558 192.826 229.71C192.509 227.862 195.611 224.75 195.611 224.75C197.366 225.618 202.633 229.065 202.633 229.065L207.24 229.66C207.24 229.66 208.164 229.66 209.062 228.024C210.11 226.518 211.342 225.132 212.731 223.894C212.731 223.894 210.606 216.963 212.124 216.033C213.642 215.103 215.186 210.564 215.186 210.564L216.401 208.394C216.401 208.394 213.536 207.216 212.995 205.79C212.454 204.364 205.392 206.262 205.392 206.262L200.521 209.436L196.68 212.226L195.017 215.19C195.017 215.19 191.624 211.358 191.611 213.503C191.352 215.703 190.839 217.869 190.08 219.964C190.08 219.964 190.78 220.311 189.856 221.972C188.932 223.634 187.928 223.547 185.896 223.783C183.246 223.808 180.597 223.638 177.976 223.274C177.976 223.274 176.656 227.862 177.566 228.656L178.464 229.425C178.464 229.425 177.052 232.76 175.652 232.066L172.247 230.38L167.482 232.19L162.202 237.671L161.027 237.448C157.791 217.058 163.254 196.293 176.229 179.667C189.204 163.041 208.641 151.899 230.314 148.664C230.617 149.904 230.947 151.069 230.947 151.069L229.627 157.195L227.938 160.22L226.486 162.812L224.44 166.458L229.68 170.996L228.558 176.365L225.72 178.039L224.902 182.069L229.772 191.01L231.092 194.519C230.277 196.199 229.876 198.03 229.918 199.876C229.918 199.876 230.512 203.224 233.112 204.55C235.712 205.877 239.131 207.44 239.131 207.44L238.854 212.4L237.679 213.64L239.633 218.984C245.586 221.179 245.018 223.014 245.586 221.179L246.167 219.356L250.219 217.98L255.38 223.77C255.981 223.763 256.574 223.897 257.104 224.162C257.635 224.426 258.086 224.812 258.416 225.283C259.921 227.069 262.271 225.519 259.433 228.854Z" fill="white"/>
<path opacity="0.6" d="M189.473 272.044C189.618 273.804 187.242 276.012 187.242 276.012L189.182 276.966L189.776 281.926L188.311 284.555C177.929 275.939 170.01 265.017 165.277 252.786L166.333 247.529L170.993 246.909C170.993 246.909 175.164 244.305 177.012 244.999C178.86 245.694 180.55 249.959 180.55 249.959C180.55 249.959 181.87 255.713 181.698 255.601H181.619H181.724L183.625 256.544L184.166 258.813L181.526 263.525H177.276C177.276 263.525 176.431 263.103 176.352 265.174C176.421 265.893 176.653 266.589 177.034 267.216C177.414 267.843 177.933 268.385 178.556 268.807L183.15 267.704L184.378 263.24L188.892 262.409C188.892 262.409 188.245 265.149 189.301 265.67L190.37 266.203L191.004 269.477C190.531 269.74 190.141 270.117 189.872 270.567C189.603 271.018 189.465 271.527 189.473 272.044Z" fill="white"/>
<path opacity="0.6" d="M211.306 279.062C210.896 277.996 210.725 277.066 207.913 275.677C205.102 274.288 205.273 274.784 204.164 275.937C203.687 276.53 203.035 276.979 202.289 277.228C201.543 277.477 200.736 277.516 199.967 277.338C198.119 276.954 199.082 278.913 199.082 278.913L199.531 284.208L194.317 289.044C195.928 290.16 197.595 291.218 199.32 292.218L200.429 289.019L209.088 291.4C207.253 290.892 208.336 288.536 208.336 288.536L206.488 287.618C206.488 287.618 211.715 280.104 211.306 279.062Z" fill="white"/>
<path opacity="0.6" d="M265.848 251.534L263.01 248.843L259.763 249.798L258.443 252.278L257.453 254.064L258.773 256.544L261.413 259.557L262.918 256.854C262.918 256.854 267.102 256.854 269.293 254.584C271.484 252.315 265.848 251.534 265.848 251.534Z" fill="white"/>
<path opacity="0.6" d="M257.506 239.394L262.786 241.998L262.997 240.833C263.272 239.899 263.758 239.032 264.422 238.291L260.383 234.273L257.506 239.394Z" fill="white"/>
<path opacity="0.6" d="M255.71 297.116L254.192 295.021L252.424 294.153H247.025L243.949 299.634C243.949 299.634 241.006 299.262 237.138 298.939C233.27 298.617 234.221 300.117 234.221 300.117L233.218 303.564C242.976 304.693 252.869 304.194 262.442 302.089C261.33 301.36 260.175 300.69 258.984 300.08L255.71 297.116Z" fill="white"/>
</g>
<path d="M317.157 262.396C315.348 265.616 313.306 268.715 311.045 271.672C299.317 286.989 282.084 297.802 262.53 302.112C242.976 306.422 222.422 303.938 204.666 295.12C202.831 294.215 201.036 293.248 199.32 292.231C197.604 291.214 195.928 290.172 194.317 289.056C192.364 287.73 190.489 286.316 188.694 284.84C188.579 284.759 188.473 284.668 188.377 284.568V284.568C176.68 274.843 168.13 262.224 163.705 248.151C159.28 234.079 159.158 219.121 163.352 204.986C167.547 190.852 175.89 178.111 187.427 168.219C198.965 158.327 213.231 151.683 228.597 149.046C243.963 146.409 259.809 147.886 274.324 153.308C288.839 158.729 301.438 167.877 310.681 179.705C319.925 191.534 325.44 205.567 326.596 220.2C327.753 234.833 324.505 249.477 317.223 262.458L317.157 262.396Z" stroke="#263238" stroke-linecap="round" stroke-linejoin="round"/>
<path d="M262.442 302.089C252.869 304.194 242.976 304.693 233.218 303.564L234.221 300.117C234.221 300.117 233.27 298.617 237.138 298.939C241.006 299.262 243.949 299.634 243.949 299.634L247.025 294.153H252.424L254.192 295.021L255.71 297.116L258.984 300.08C260.175 300.69 261.33 301.36 262.442 302.089Z" stroke="#263238" stroke-linecap="round" stroke-linejoin="round"/>
<path d="M317.447 189.968C316.549 190.712 315.097 190.948 312.8 190.278C304.55 187.885 300.274 196.59 301.712 196.689C303.151 196.788 304.168 200.706 301.211 202.591C298.254 204.476 291.311 203.831 291.773 205.778C292.235 207.725 295.627 212.561 295.627 212.561C295.627 212.561 298.663 211.222 299.521 212.883C300.379 214.545 301.356 219.083 299.138 219.902C298.515 220.153 298.001 220.598 297.684 221.162C297.367 221.727 297.265 222.376 297.396 223.002L290.73 222.642L289.648 227.267L285.556 230.491L283.351 229.412C283.351 229.412 281.424 224.676 279.563 227.528L277.715 230.38L276.54 232.934C276.54 232.934 281.332 233.938 282.52 235.898L283.708 237.857L294.122 240.597L294.928 243.412L296.855 244.354L297.343 249.252L301.224 251.162L305.184 251.447L309.91 245.247C310.869 246.988 311.707 248.786 312.418 250.629C312.88 252.228 311.533 256.209 311.533 256.209C310.754 257.69 309.598 258.968 308.167 259.929C306.28 260.834 303.97 258.391 304.207 261.38L304.366 264.368L303.877 267.679L306.794 269.117L309.566 270.494L311.177 271.734" stroke="#263238" stroke-linecap="round" stroke-linejoin="round"/>
<path d="M161.132 237.448L162.307 237.671L167.587 232.19L172.352 230.38L175.758 232.066C177.157 232.76 178.57 229.425 178.57 229.425L177.672 228.656C176.761 227.862 178.081 223.274 178.081 223.274C180.703 223.638 183.351 223.808 186.001 223.783C188.087 223.547 189.077 223.622 189.961 221.972C190.846 220.323 190.186 219.964 190.186 219.964C190.945 217.869 191.458 215.703 191.717 213.503C191.717 211.358 195.122 215.19 195.122 215.19L196.786 212.226L200.508 209.448L205.379 206.274C205.379 206.274 212.441 204.364 212.982 205.803C213.523 207.241 216.388 208.407 216.388 208.407L215.173 210.577C215.173 210.577 213.616 215.09 212.111 216.045C210.606 217 212.718 223.907 212.718 223.907C211.328 225.145 210.097 226.53 209.048 228.036C208.124 229.698 207.227 229.673 207.227 229.673L202.62 229.078C202.62 229.078 197.34 225.63 195.598 224.762C195.598 224.762 192.496 227.875 192.812 229.722C193.129 231.57 191.717 231.657 191.717 231.657L196.588 235.811L197.38 238.415L200.27 242.073L199.333 243.734L197.564 246.884L198.356 250.319L201.498 254.312L203.28 257.92L205.207 263.76L205.828 266.997L211.504 269.39L214.012 268.15L218.896 265.67L221.206 269.985L222.103 272.155L218.038 275.615L219.49 278.43L219.952 281.616L219.556 285.882L218.724 288.61L222.103 290.296L228.136 289.478L227.911 285.15C229.898 284.038 231.998 283.115 234.181 282.398C236.742 281.716 236.491 281.753 239.646 280.835C242.801 279.918 241.837 280.166 243.355 279.694C244.873 279.223 246.352 278.64 246.352 278.64L246.457 274.152L248.965 265.992L250.51 266.947C252.041 267.914 254.338 264.405 254.338 264.405L255.42 258.205L252.305 256.68C250.491 256.332 248.65 256.125 246.8 256.06L242.458 253.915L238.814 247.876C237.625 246.662 236.609 245.307 235.792 243.846L237.468 240.87L239.527 237.15L241.679 238.216L243.659 239.208L245.758 240.238L249.19 238.154L251.104 233.12L253.744 230.913C255.46 229.45 256.661 232.153 256.661 232.153L259.486 228.817C262.324 225.482 259.974 227.032 258.522 225.32C258.192 224.849 257.741 224.463 257.21 224.199C256.68 223.935 256.087 223.8 255.486 223.808L250.325 218.017L246.22 219.48L245.639 221.303C245.071 223.138 245.639 221.303 239.686 219.108L237.732 213.764L238.907 212.524L239.184 207.564C239.184 207.564 235.765 205.989 233.165 204.674C230.564 203.36 229.97 200 229.97 200C229.929 198.154 230.33 196.323 231.145 194.643L229.825 191.134L224.954 182.193L225.773 178.163L228.611 176.489L229.733 171.12L224.638 166.582L226.684 162.936L228.136 160.344L229.825 157.319L231.145 151.193C231.145 151.193 230.815 150.052 230.512 148.788" stroke="#263238" stroke-linecap="round" stroke-linejoin="round"/>
<path d="M188.76 284.828C188.658 284.717 188.542 284.618 188.417 284.53V284.53L189.882 281.902L189.288 276.942L187.348 275.987C187.348 275.987 189.724 273.78 189.578 272.019C189.553 271.493 189.678 270.971 189.94 270.507C190.202 270.042 190.593 269.652 191.07 269.378L190.436 266.104L189.367 265.571C188.311 265.05 188.958 262.31 188.958 262.31L184.444 263.14L183.216 267.604L178.622 268.708C177.999 268.286 177.48 267.743 177.1 267.117C176.719 266.49 176.487 265.793 176.418 265.075C176.497 263.004 177.342 263.426 177.342 263.426H181.592L184.232 258.714L183.691 256.444L181.79 255.502" stroke="#263238" stroke-linecap="round" stroke-linejoin="round"/>
<path d="M181.672 255.502C181.883 255.614 180.523 249.86 180.523 249.86C180.523 249.86 178.834 245.656 176.986 244.9C175.138 244.144 170.966 246.81 170.966 246.81L166.307 247.43L165.251 252.687" stroke="#263238" stroke-linecap="round" stroke-linejoin="round"/>
<path d="M200.429 289.019L199.32 292.218C197.56 291.21 195.892 290.152 194.317 289.044L199.531 284.208L199.082 278.913C199.082 278.913 198.119 276.954 199.967 277.338C200.736 277.516 201.543 277.477 202.289 277.228C203.035 276.979 203.687 276.53 204.164 275.937C205.247 274.784 205.115 274.288 207.913 275.677C210.712 277.066 210.896 277.996 211.306 279.062C211.715 280.128 206.488 287.655 206.488 287.655L208.336 288.573C208.336 288.573 207.253 290.929 209.088 291.437L200.429 289.019Z" stroke="#263238" stroke-linecap="round" stroke-linejoin="round"/>
<path d="M259.763 249.798L263.01 248.843L265.848 251.534C265.848 251.534 271.458 252.216 269.267 254.51C267.076 256.804 262.891 256.779 262.891 256.779L261.36 259.482L258.72 256.469L257.4 253.989L258.39 252.204L259.763 249.798Z" stroke="#263238" stroke-linecap="round" stroke-linejoin="round"/>
<path d="M264.422 238.291C263.758 239.032 263.272 239.899 262.997 240.833L262.786 241.998L257.506 239.394L260.383 234.273L264.422 238.291Z" stroke="#263238" stroke-linecap="round" stroke-linejoin="round"/>
<path d="M550.875 530.782C543.8 536.312 489.298 571.454 411.523 565.787C407.339 532.53 391.38 395.907 409.53 374.48C409.53 374.48 453.565 354.752 494.129 363.035C534.692 371.318 550.479 379.254 553.37 386.124C555.561 391.319 552.433 488.064 550.875 530.782Z" fill="#263238"/>
<path d="M492.782 377.63C469.418 396.639 439.322 392.621 439.982 378.026C440.088 375.745 442.688 372.918 442.688 372.918L441.778 371.603L437.818 365.986C434.927 361.782 431.31 356.5 428.789 352.656C426.677 349.382 479.332 318.953 479.332 336.449C479.332 361.1 492.215 365.738 492.215 365.738C497.072 367.573 501.6 370.475 492.782 377.63Z" fill="white" stroke="#263238" stroke-linecap="round" stroke-linejoin="round"/>
<path d="M507.553 415.276C507.553 415.276 502.841 430.454 505.072 434.806" stroke="white" stroke-linecap="round" stroke-linejoin="round"/>
<path d="M502.049 371.206C502.049 385.851 455.545 400.198 441.923 385.504" stroke="white" stroke-linecap="round" stroke-linejoin="round"/>
<path d="M463.795 354.305C463.795 354.305 460.68 365.341 446.16 373.959C445.467 372.842 444.349 372.014 443.032 371.64C442.594 371.573 442.149 371.573 441.712 371.64L437.752 366.023C445.262 360.939 463.795 354.305 463.795 354.305Z" fill="#263238"/>
<path d="M470.316 340.74C470.316 340.74 470.158 351.627 467.676 353.846C449.262 370.438 431.257 371.752 428.287 367.375C408.289 337.912 413.015 330.175 410.982 325.128C407.378 316.274 402.956 301.816 404.91 293.062C409.266 273.507 448.47 258.342 469.115 278.008C479.015 287.42 482.143 307.842 480.058 324.855" fill="white"/>
<path d="M470.316 340.74C470.316 340.74 470.158 351.627 467.676 353.846C449.262 370.438 431.257 371.752 428.287 367.375C408.289 337.912 413.015 330.175 410.982 325.128C407.378 316.274 402.956 301.816 404.91 293.062C409.266 273.507 448.47 258.342 469.115 278.008C479.015 287.42 482.143 307.842 480.058 324.855" stroke="#263238" stroke-linecap="round" stroke-linejoin="round"/>
<path d="M413.503 316.026C413.503 316.026 407.999 313.708 406.811 316.473" stroke="#263238" stroke-linecap="round" stroke-linejoin="round"/>
<path d="M426.848 316.2C426.848 316.2 438.293 311.699 443.441 317.167" stroke="#263238" stroke-linecap="round" stroke-linejoin="round"/>
<path d="M439.56 323.826C439.745 325.438 438.913 326.839 437.685 326.976C436.458 327.112 435.323 325.884 435.138 324.272C434.953 322.66 435.785 321.247 437.012 321.123C438.24 320.999 439.322 322.214 439.56 323.826Z" fill="#263238"/>
<path d="M417.12 324.31C417.318 325.922 416.473 327.335 415.245 327.459C414.018 327.583 412.883 326.38 412.698 324.768C412.513 323.156 413.345 321.743 414.572 321.619C415.8 321.495 416.909 322.698 417.12 324.31Z" fill="#263238"/>
<path d="M417.674 320.069C419.272 322.487 418.4 326.616 416.288 332.283C414.176 337.95 416.038 339.996 424.142 340.566" fill="white"/>
<path d="M417.674 320.069C419.272 322.487 418.4 326.616 416.288 332.283C414.176 337.95 416.038 339.996 424.142 340.566" stroke="#263238" stroke-linecap="round" stroke-linejoin="round"/>
<path d="M424.142 350.374C424.142 350.374 434.702 349.469 439.534 346.977" stroke="#263238" stroke-linecap="round" stroke-linejoin="round"/>
<path d="M491.04 294.153C491.04 286.787 483.305 271.672 469.735 269.973C461.934 262.31 450.82 259.495 437.329 262.409C406.151 269.13 396.66 298.046 395.3 302.833C395.168 303.279 395.102 303.527 395.102 303.527L403.445 301.543L399.854 308.128L404.224 310.843L403.22 311.885L408.289 316.473L406.705 308.09C407.682 302.684 414.308 295.12 414.308 295.12C411.89 298.065 410.383 301.579 409.952 305.276C412.592 298.84 428.432 292.876 428.432 292.876C423.298 296.794 420.512 304.457 420.512 304.457C425.396 298.803 436.841 295.145 444.167 293.198C446.635 298.79 450.556 304.631 456.152 307.867C461.432 310.918 461.248 317.217 461.248 317.217C466.928 320.926 471.114 326.325 473.128 332.543L479.516 340.752C479.516 340.752 491.04 327.472 491.04 294.153Z" fill="#263238"/>
<path d="M464.152 319.325C462.013 315.022 469.775 303.366 475.279 304.804C478.368 305.623 482.407 310.918 483.199 316.473C483.991 322.028 479.807 332.593 475.345 334.887C472.507 336.375 470.171 332.32 470.171 332.32" fill="white"/>
<path d="M464.152 319.325C462.013 315.022 469.775 303.366 475.279 304.804C478.368 305.623 482.407 310.918 483.199 316.473C483.991 322.028 479.807 332.593 475.345 334.887C472.507 336.375 470.171 332.32 470.171 332.32" stroke="#263238" stroke-linecap="round" stroke-linejoin="round"/>
<path d="M127.393 529.79L276.54 497.029L587.638 530.782L507.54 582.242L127.393 529.79Z" fill="white"/>
<path d="M127.393 529.79L276.54 497.029L587.638 530.782" fill="white"/>
<path d="M127.393 529.79L276.54 497.029L587.638 530.782" stroke="#263238" stroke-linecap="round" stroke-linejoin="round"/>
<path d="M256.463 536.362L316.84 511.289L393.175 514.997L359.225 542.264L256.463 536.362Z" fill="white" stroke="#263238" stroke-linecap="round" stroke-linejoin="round"/>
<path d="M412.474 373.24C393.109 380.68 388.938 397.408 356.03 463.512C356.03 463.512 341.418 466.327 333.59 483.005C325.763 499.683 338.87 512.852 353.958 512.405C353.958 512.405 360.017 517.365 372.438 516.857C384.859 516.348 439.758 437.435 439.758 437.435L412.474 373.24Z" fill="#263238"/>
<path d="M361.799 467.393C370.458 474.635 375.434 485.262 372.794 497.042" stroke="white" stroke-linecap="round" stroke-linejoin="round"/>
<path d="M370.154 470.878C370.154 470.878 380.794 473.06 382.444 485.857" stroke="white" stroke-linecap="round" stroke-linejoin="round"/>
<path d="M401.28 433.43C396.253 421.779 394.516 409.106 396.238 396.639" stroke="white" stroke-linecap="round" stroke-linejoin="round"/>
<path d="M399.775 416.566C398.97 421.774 404.699 449.5 404.659 478.652" stroke="white" stroke-linecap="round" stroke-linejoin="round"/>
<path d="M544.526 378.721C568.748 390.154 571.626 425.332 548.777 467.393C532.633 497.079 510.352 540.913 496.254 543.852C482.156 546.79 468.402 538.544 468.402 538.544C468.402 538.544 456.522 538.024 452.932 530.088C443.111 508.4 468.072 480.996 477.84 487.556C477.84 487.556 509.203 423.485 514.919 419.442" fill="#263238"/>
<path d="M450.688 516.906C447.48 501.94 472.56 484.282 477.84 487.556C477.84 487.556 496.465 488.535 499.25 500.638" stroke="white" stroke-linecap="round" stroke-linejoin="round"/>
<path d="M518.918 520.093C529.822 502.026 548.777 467.393 548.777 467.393" stroke="white" stroke-linecap="round" stroke-linejoin="round"/>
<path d="M477.84 487.556C477.84 487.556 490.895 480.215 500.65 487.159" stroke="white" stroke-linecap="round" stroke-linejoin="round"/>
<path d="M482.302 478.64C482.302 478.64 489.509 463.76 496.822 450.12C504.134 436.48 520.872 416.28 527.828 415.301" stroke="white" stroke-linecap="round" stroke-linejoin="round"/>
<path d="M344.731 505.387C343.163 505.315 341.632 504.921 340.243 504.234C317.803 493.235 300.353 475.056 289.846 462.012C285.76 457.026 282 451.813 278.586 446.4L283.972 424.725C283.972 424.725 289.04 437.125 309.408 449.314C329.776 461.503 353.971 465.521 361.799 477.834C368.729 488.56 356.519 505.92 344.731 505.387Z" fill="white"/>
<path opacity="0.4" d="M344.731 505.387C344.481 503.819 344.038 502.283 343.411 500.811C338.699 489.726 310.187 467.691 310.187 467.691C303.402 467.492 295.944 464.839 289.872 462.012C285.778 457.027 282.009 451.813 278.586 446.4L283.972 424.725C283.972 424.725 289.04 437.125 309.408 449.314C329.776 461.503 353.971 465.521 361.799 477.834C368.729 488.56 356.519 505.92 344.731 505.387Z" fill="white"/>
<path d="M344.731 505.387C343.163 505.315 341.632 504.921 340.243 504.234C317.803 493.235 300.353 475.056 289.846 462.012C285.76 457.026 282 451.813 278.586 446.4L283.972 424.725C283.972 424.725 289.04 437.125 309.408 449.314C329.776 461.503 353.971 465.521 361.799 477.834C368.729 488.56 356.519 505.92 344.731 505.387Z" stroke="#263238" stroke-linecap="round" stroke-linejoin="round"/>
<path d="M293.911 445.086C293.911 445.086 291.126 456.642 283.787 454.051C279.827 452.65 272.197 441.539 270.758 435.934L293.911 445.086Z" fill="white" stroke="#263238" stroke-linecap="round" stroke-linejoin="round"/>
<path d="M261.558 373.922L267.551 371.02C267.551 371.02 284.486 371.157 294.994 379.18C304.537 386.471 309.382 397.891 309.382 397.891C309.382 397.891 346.46 378.659 384.331 389.695L399.775 470.555L328.772 474.92L284.46 435.376L261.558 373.922Z" fill="white" stroke="#263238" stroke-linecap="round" stroke-linejoin="round"/>
<path d="M404.659 473.792C404.659 473.792 396.33 473.556 385.189 473.903C368.346 474.399 345.074 476.185 334.435 482L333.934 481.839L324.192 478.64L323.994 478.367C322.199 475.887 307.718 456.357 287.034 448.409L257.783 371.628C257.783 371.628 288.143 372.868 304.735 398.635L313.064 401.462C313.064 401.462 362.63 387.674 390.377 392.634L404.659 473.792Z" fill="white"/>
<path opacity="0.3" d="M323.994 478.38C322.199 475.9 307.718 456.37 287.034 448.421L257.783 371.64C257.783 371.64 288.143 372.88 304.735 398.648L323.994 478.38Z" fill="black" fill-opacity="0.7"/>
<path opacity="0.3" d="M385.189 473.903C368.346 474.399 345.074 476.185 334.435 482L333.934 481.839L314.477 404.24C314.477 404.24 330.396 400.88 335.293 402.578C335.28 402.603 367.646 425.035 385.189 473.903Z" fill="black" fill-opacity="0.7"/>
<path d="M404.659 473.792C404.659 473.792 396.33 473.556 385.189 473.903C368.346 474.399 345.074 476.185 334.435 482L333.934 481.839L324.192 478.64L323.994 478.367C322.199 475.887 307.718 456.357 287.034 448.409L257.783 371.628C257.783 371.628 288.143 372.868 304.735 398.635L313.064 401.462C313.064 401.462 362.63 387.674 390.377 392.634L404.659 473.792Z" stroke="#263238" stroke-linecap="round" stroke-linejoin="round"/>
<path d="M313.091 401.475L332.191 475.912" stroke="#263238" stroke-linecap="round" stroke-linejoin="round"/>
<path d="M324.192 478.652L305.633 404.265" stroke="#263238" stroke-linecap="round" stroke-linejoin="round"/>
<path d="M277.042 446.462C272.804 445.358 264.264 421.439 268.171 411.134C268.171 411.134 272.818 403.558 274.771 403.037C277.728 402.231 289.661 402.467 289.08 404.352C287.76 408.716 278.599 408.642 278.599 408.642L275.629 413.751L275.748 416.566C275.748 416.566 280.064 413.614 281.648 413.701C282.467 413.701 286.691 415.685 290.044 417.347C292.908 418.773 294.664 419.554 294.004 420.844C291.878 425.134 282.836 422.084 282.836 422.084L279.431 426.907C279.431 426.907 282.718 427.44 284.156 427.589C285.595 427.738 297.541 435.215 297.185 436.145C295.772 439.791 284.447 435.848 284.447 435.848L282.44 437.422C282.44 437.422 290.783 439.444 291.68 439.741C293 440.2 298.082 443.87 298.003 444.292C297.396 447.516 290.387 445.148 290.387 445.148L284.249 444.912C283.314 445.687 282.189 446.232 280.975 446.499" fill="white"/>
<path d="M277.042 446.462C272.804 445.358 264.264 421.439 268.171 411.134C268.171 411.134 272.818 403.558 274.771 403.037C277.728 402.231 289.661 402.467 289.08 404.352C287.76 408.716 278.599 408.642 278.599 408.642L275.629 413.751L275.748 416.566C275.748 416.566 280.064 413.614 281.648 413.701C282.467 413.701 286.691 415.685 290.044 417.347C292.908 418.773 294.664 419.554 294.004 420.844C291.878 425.134 282.836 422.084 282.836 422.084L279.431 426.907C279.431 426.907 282.718 427.44 284.156 427.589C285.595 427.738 297.541 435.215 297.185 436.145C295.772 439.791 284.447 435.848 284.447 435.848L282.44 437.422C282.44 437.422 290.783 439.444 291.68 439.741C293 440.2 298.082 443.87 298.003 444.292C297.396 447.516 290.387 445.148 290.387 445.148L284.249 444.912C283.314 445.687 282.189 446.232 280.975 446.499" stroke="#263238" stroke-linecap="round" stroke-linejoin="round"/>
<path d="M275.695 416.566C275.695 416.566 271.735 419.69 270.719 420.596C269.702 421.501 269.953 424.378 269.953 424.378" stroke="#263238" stroke-linecap="round" stroke-linejoin="round"/>
<path d="M272.831 430.726C272.831 433.876 275.075 435.786 276.104 436.802C277.134 437.819 274.454 440.584 277.424 442.568" stroke="#263238" stroke-linecap="round" stroke-linejoin="round"/>
<path d="M468.349 530.559C459.967 532.704 450.859 518.866 439.745 503.762C432.406 493.842 424.195 483.265 414.757 476.482C414.005 475.949 413.239 475.428 412.474 474.932L417.991 448.892C429.449 454.534 436.55 463.574 448.444 472.862C467.584 487.828 484.546 497.017 489.245 503.638C493.944 510.26 482.711 526.876 468.349 530.559Z" fill="white"/>
<path opacity="0.4" d="M439.745 503.75C432.406 493.83 424.195 483.253 414.757 476.47C416.001 476.53 417.245 476.353 418.414 475.949C418.414 475.949 433.33 487.32 439.745 503.75Z" fill="white"/>
<path d="M468.349 530.559C459.967 532.704 450.859 518.866 439.745 503.762C432.406 493.842 424.195 483.265 414.757 476.482C414.005 475.949 413.239 475.428 412.474 474.932L417.991 448.892C429.449 454.534 436.55 463.574 448.444 472.862C467.584 487.828 484.546 497.017 489.245 503.638C493.944 510.26 482.711 526.876 468.349 530.559Z" stroke="#263238" stroke-linecap="round" stroke-linejoin="round"/>
<path d="M421.08 473.903C420.507 474.866 419.562 475.585 418.44 475.912C418.142 476.022 417.838 476.117 417.529 476.197H417.278C408.421 478.367 388.489 473.854 388.489 473.854C388.489 473.854 375.434 468.026 374.642 466.649C374.091 465.559 373.601 464.441 373.177 463.301L372.821 462.322C372.821 462.322 368.122 459.842 367.541 457.907C366.96 455.973 365.97 455.427 368.861 455.08C371.752 454.733 387.341 455.08 387.341 455.08L370.379 448.582C370.379 448.582 359.146 443.263 358.103 441.39C357.06 439.518 355.753 438.278 361.495 439.022C367.237 439.766 379.777 443.188 379.777 443.188L389.664 445.16L379.843 441.229C379.843 441.229 360.518 439.034 364.175 433.392H375.144C381.358 433.65 387.539 434.388 393.624 435.6C396.818 436.517 417.938 448.843 417.938 448.843" fill="white"/>
<path opacity="0.4" d="M417.252 476.247C408.395 478.417 388.463 473.903 388.463 473.903C388.463 473.903 375.408 468.075 374.616 466.699C374.064 465.608 373.575 464.491 373.151 463.351L389.176 465C388.615 465.948 388.321 467.015 388.321 468.1C388.321 469.185 388.615 470.252 389.176 471.2C390.958 474.213 411.259 477.264 417.252 476.247Z" fill="white"/>
<path d="M421.08 473.903C420.507 474.866 419.562 475.585 418.44 475.912C418.142 476.022 417.838 476.117 417.529 476.197H417.278C408.421 478.367 388.489 473.854 388.489 473.854C388.489 473.854 375.434 468.026 374.642 466.649C374.091 465.559 373.601 464.441 373.177 463.301L372.821 462.322C372.821 462.322 368.122 459.842 367.541 457.907C366.96 455.973 365.97 455.427 368.861 455.08C371.752 454.733 387.341 455.08 387.341 455.08L370.379 448.582C370.379 448.582 359.146 443.263 358.103 441.39C357.06 439.518 355.753 438.278 361.495 439.022C367.237 439.766 379.777 443.188 379.777 443.188L389.664 445.16L379.843 441.229C379.843 441.229 360.518 439.034 364.175 433.392H375.144C381.358 433.65 387.539 434.388 393.624 435.6C396.818 436.517 417.938 448.843 417.938 448.843" stroke="#263238" stroke-linecap="round" stroke-linejoin="round"/>
<path d="M372.794 462.371L392.08 465.037" stroke="#263238" stroke-linecap="round" stroke-linejoin="round"/>
<path d="M180.55 517.849L228.888 531.489L317.328 512.529C317.328 512.529 263.314 498.12 262.812 498.48C262.31 498.84 180.55 517.849 180.55 517.849Z" fill="white"/>
<path opacity="0.3" d="M180.55 517.849L228.888 531.489L317.328 512.529C317.328 512.529 263.314 498.12 262.812 498.48C262.31 498.84 180.55 517.849 180.55 517.849Z" fill="black" fill-opacity="0.7"/>
<path d="M180.55 517.849L228.888 531.489L317.328 512.529C317.328 512.529 263.314 498.12 262.812 498.48C262.31 498.84 180.55 517.849 180.55 517.849Z" stroke="#263238" stroke-linecap="round" stroke-linejoin="round"/>
<path d="M181.249 501.853C177.857 502.076 177.012 513.558 180.55 517.849L258.641 502.622L264.897 488.709L181.249 501.853Z" fill="white"/>
<path opacity="0.3" d="M181.249 501.853C177.857 502.076 177.012 513.558 180.55 517.849L258.641 502.622L264.897 488.709L181.249 501.853Z" fill="black" fill-opacity="0.7"/>
<path d="M181.249 501.853C177.857 502.076 177.012 513.558 180.55 517.849L258.641 502.622L264.897 488.709L181.249 501.853Z" stroke="#263238" stroke-linecap="round" stroke-linejoin="round"/>
<path d="M313.54 501.692C313.54 501.692 312.378 507.73 313.13 511.45L228.796 529.381L184.338 517.08C184.338 517.08 179.718 509.404 183.744 503.44L264.977 490.482L313.54 501.692Z" fill="white" stroke="#263238" stroke-linecap="round" stroke-linejoin="round"/>
<path d="M181.249 501.853L264.898 488.709L316.84 501.072L229.482 517.427L181.249 501.853Z" fill="white" stroke="#263238" stroke-linecap="round" stroke-linejoin="round"/>
<path d="M184.219 509.194L228.452 521.569L300.854 507.879" stroke="#263238" stroke-linecap="round" stroke-linejoin="round"/>
<path d="M312.893 509.144L235.039 524.743" stroke="#263238" stroke-linecap="round" stroke-linejoin="round"/>
<path d="M185.262 514.067C185.935 514.129 218.605 523.578 218.605 523.578" stroke="#263238" stroke-linecap="round" stroke-linejoin="round"/>
<path d="M306.53 506.28L312.721 505.337" stroke="#263238" stroke-linecap="round" stroke-linejoin="round"/>
<path d="M227.014 525.872L223.727 525.177" stroke="#263238" stroke-linecap="round" stroke-linejoin="round"/>
<path d="M183.744 503.44C185.475 505.313 186.477 507.684 186.585 510.162C186.693 512.641 185.9 515.08 184.338 517.08C182.892 515.086 182.069 512.751 181.964 510.34C181.859 507.929 182.476 505.538 183.744 503.44Z" fill="#263238"/>
<path opacity="0.3" d="M183.744 503.44C185.475 505.313 186.477 507.684 186.585 510.162C186.693 512.641 185.9 515.08 184.338 517.08C182.892 515.086 182.069 512.751 181.964 510.34C181.859 507.929 182.476 505.538 183.744 503.44Z" fill="white" fill-opacity="0.7"/>
<path d="M183.744 503.44C185.475 505.313 186.477 507.684 186.585 510.162C186.693 512.641 185.9 515.08 184.338 517.08C182.892 515.086 182.069 512.751 181.964 510.34C181.859 507.929 182.476 505.538 183.744 503.44Z" stroke="#263238" stroke-linecap="round" stroke-linejoin="round"/>
<path d="M364.412 521.569L448.826 524.818L440.603 552.11L336.758 548.39L364.412 521.569Z" fill="white"/>
<path opacity="0.4" d="M364.412 521.569L448.826 524.818L440.603 552.11L336.758 548.39L364.412 521.569Z" fill="white"/>
<path d="M364.412 521.569L448.826 524.818L440.603 552.11L336.758 548.39L364.412 521.569Z" stroke="#263238" stroke-linecap="round" stroke-linejoin="round"/>
</svg>
